<svg data-name="Layer 1" xmlns="http://www.w3.org/2000/svg" width="100%" height="100%" viewBox="0 0 996.5 828.2"><defs><linearGradient id="a" x1="-925.6" y1="683.7" x2="-925.6" y2="144.4" gradientTransform="matrix(-1 0 0 1 -573.8 0)" gradientUnits="userSpaceOnUse"><stop offset="0" stop-color="gray" stop-opacity=".3"></stop><stop offset=".5" stop-color="gray" stop-opacity=".1"></stop><stop offset="1" stop-color="gray" stop-opacity=".1"></stop></linearGradient></defs><path d="M994.6 272.5h-92v111.4H988l.6 3.4h-85.9v89.9l.5-.1 7.2-2.8 1.5-.6q3.7-1.5 7.3-3.2l2.5-1.2a149.8 149.8 0 0036.2-25l.8-.9 4.4-4.3 1.5-1.6 4.8-5.5.7-.8a116.4 116.4 0 0015.5-25l.4-.9a99.8 99.8 0 004.9-13.3c5-17.9 5.7-36.4 5.7-54.9v-6.4l-.3-22.5-.1-5.8-.6-14.8c0-1.4 0-2.8-.2-4.2l-.1-2.3-.6-8.6zM902.6 148.4h50.5a344.8 344.8 0 00-26.9-32.9 427.7 427.7 0 00-23.6-23.8zM902.6 151.8V269h91.7v-1a284.6 284.6 0 00-.7-6c0-1.1-.2-2.4-.4-3.5l-.4-3.5-.4-3.5-.5-3.5a200 200 0 00-1-7 5.8 5.8 0 00-.2-.6A251.2 251.2 0 00984 211a202.5 202.5 0 00-11.4-30 216.9 216.9 0 00-17.1-29.2zM684.3 272.5v111.4h196.4V272.5zm0 114.8v75.5c22.9-7.3 49-4.3 72.7 1.7 18.4 4.6 36.2 11 54.6 15.5a200 200 0 0024.8 4.7l2 .2 3 .3 3 .2H846.2a3.5 3.5 0 00.5 0h1.6l2.4.1H858.8l2.8-.2h1.8l2.1-.2 4.6-.5 1.8-.2.9-.1 4.5-.7 3.3-.6v-95.7zm146-239v3.5h-146V269h196.4V151.8h-9.9v-3.4h9.9V72.6A326 326 0 00748 6.6 282 282 0 00684.3 0v148.4zm-449-.6l.8.6h280.2V1c-49.9 4.2-98.5 21-137.7 48.7-18.9 13.3-35.8 29.1-57 39.4a89.2 89.2 0 01-35.6 9.2zm-1.9-60.5v33.4l27.1-26.4c-10-3.5-18-5.9-27.1-7zm-.9 419.6h1v73.1q15.3-1.1 30.5-3.1a546.4 546.4 0 00132.2-34.3q6.9-2.7 13.6-5.7l9-4 13.2-6.2a465.1 465.1 0 0055.8-32.5 245 245 0 003.4-2.3l6.6-4.6 3.2-2.4 2.2-1.7 6.8-5 6.3-4.4v-86.4H437.2l.4-1.5-.5 1.5h-57.7v119.5zm1-355V269h282.8V151.8zm0 120.6V384h282.8V272.5zM322.8 90.7l34.5 33.7V87.1q-17.3 1-34.5 3.6zM82.2 272.5v111.4h275.2V272.5zm66.6 275.2a511.1 511.1 0 00129.7 30.8h.2q12.6 1.3 25.2 2h.3c17.7 1 35.5 1.3 53.2.6V387.3H82.2l1 128.4M6 383.9h54.3V272.5H38.8c-2.2 3.9-4.4 7.8-6.4 11.8q-1.7 3.2-3.2 6.5A218.8 218.8 0 006 383.9zm0 3.4c.4 22.7 5.5 44.9 16.7 65.4 9.3 17 22.3 32 37.5 45V387.3zM40.8 269h19.4v-29a309.4 309.4 0 00-19.4 29zm122-120.6H351l.6-.7-1-1-52.9-51.6a429.8 429.8 0 00-46.5 12.4L247 109a421.5 421.5 0 00-84.2 39.4zm-80.6 65.4V269h275.3V155l-3.9-3.1H157.2a377.7 377.7 0 00-75 61.9z" fill="#6c63ff" opacity=".1"></path><path d="M902.6 211v58h91.7v-1a284.6 284.6 0 00-.7-6c0-1.1-.2-2.4-.4-3.5l-.4-3.5-.4-3.5-.5-3.5a200 200 0 00-1-7 5.8 5.8 0 00-.2-.6A251.2 251.2 0 00984 211zM994.6 272.5h-92v111.4H988l.6 3.4h-85.9v89.9l.5-.1 7.2-2.8 1.5-.6q3.7-1.5 7.3-3.2l2.5-1.2a149.8 149.8 0 0036.2-25l.8-.9 4.4-4.3 1.5-1.6 4.8-5.5.7-.8a116.4 116.4 0 0015.5-25l.4-.9a99.8 99.8 0 004.9-13.3c5-17.9 5.7-36.4 5.7-54.9v-6.4l-.3-22.5-.1-5.8-.6-14.8c0-1.4 0-2.8-.2-4.2l-.1-2.3-.6-8.6zM811.6 168.6V269h69V168.6h-9.8v-34h-40.4v34h-18.8zM811.6 272.4h69.1v111.4h-69.1zM880.7 387.3h-69.1V480a201.4 201.4 0 0024.8 4.7l2 .2 3 .3 3 .2h2.2l1.6.1 2.4.1h8.1l2.9-.2 1.7-.1 2.2-.2 4.5-.5 1.8-.2h1l4.4-.8 3.4-.6zM379.4 156.7h57V269h-57zM379.4 272.4V384h283v-48H511.5v28.3h-75.2v-91.8h-57zM378.5 506.8h.9V580q15.3-1.2 30.5-3.2a547.4 547.4 0 00132.3-34.3q18.3-7.3 35.8-16a465.1 465.1 0 0055.8-32.4q6.7-4.5 13.2-9.3l9-6.7 6.3-4.4v-86.4H437.2l.4-1.5-.5 1.5h-57.7v119.5zM230.7 148.4H268V138h-16.7v-30.6L247 109v29h-16.2zM141.2 269h216.2V156.7H348v83H304v-49h-36.2v-38.9h-37.2v38.8h-36.1v49.1h-53.4zM141.2 272.5v111.4h216.2V272.5zm7.6 275.2a511.1 511.1 0 00129.7 30.8h.2q12.6 1.3 25.3 2h.3c17.6 1 35.4 1.3 53.1.6V387.3H141.2V427h-59l.3 88.2M56.5 387.3H6a141 141 0 0016.8 65.4c9.3 17 22.2 32 37.5 45V427h-3.8zM6 383.9h50.5v-93.1H29.2A218.8 218.8 0 006 383.9z" fill="#6c63ff" opacity=".1"></path><path fill="#6c63ff" opacity=".1" d="M379.4 187.9h30.5v35.2h-30.5zM379.4 260.9h30.5v8.1h-30.5zM379.4 272.4h30.5V296h-30.5zM379.4 333.9h30.5v35.2h-30.5zM379.4 406.8h30.5V442h-30.5zM379.4 506.8h-.9.9v8.2h30.5v-35.2h-30.5zM379.4 552.7V580q15.3-1.1 30.5-3.1v-24zM531.5 381.3h130.9v2.6H531.5zM531.5 387.3h130.9v9.9H531.5zM531.5 429.7h130.9v15.9H531.5zM531.5 478.1v16h102.3q6.7-4.5 13.2-9.3l9-6.6zM531.5 526.6v15.9h10.7q18.3-7.3 35.7-16zM304.2 306.1h-25.8v-22.9h25.8zM862.2 199.4h-25.8v-22.9h25.8zM862.2 252.7h-25.8v-23h25.8zM862.2 305.8h-25.8v-23h25.8zM862.2 359h-25.8v-22.9h25.8zM862.2 412.3h-25.8v-23h25.8zM862.2 465.5h-25.8v-22.9h25.8zM205.9 306.1h-25.8v-22.9h25.8zM304.2 362.6h-25.8v-22.9h25.8zM205.9 362.6h-25.8v-22.9h25.8zM304.2 419.2h-25.8v-23h25.8zM205.9 419.2h-25.8v-23h25.8zM304.2 475.7h-25.8v-23h25.8zM205.9 475.7h-25.8v-23h25.8zM304.2 532.2h-25.8v-22.9h25.8zM205.9 532.2h-25.8v-22.9h25.8zM304.3 580.6v-14.8h-25.8v12.7l25.8 2zM902.6 240.3v13.2h88.2v-13.2zm79.4.9h7.2v11.4H982zm-8.7 0h7.2v11.4h-7.3zm-8.8 0h7.2v11.4h-7.2zm-8.8 0h7.2v11.4h-7.2zm-8.8 0h7.3v11.4H947zm-8.7 0h7.2v11.4h-7.2zm-8.8 0h7.2v11.4h-7.2zm-8.8 0h7.3v11.4h-7.3zm-8.7 0h7.2v11.4h-7.2zm-8.8 0h7.2v11.4h-7.2zM902.6 278.5v13.1h88.2v-13zm79.4.8h7.2v11.5H982zm-8.7 0h7.2v11.5h-7.3zm-8.8 0h7.2v11.5h-7.2zm-8.8 0h7.2v11.5h-7.2zm-8.8 0h7.3v11.5H947zm-8.7 0h7.2v11.5h-7.2zm-8.8 0h7.2v11.5h-7.2zm-8.8 0h7.3v11.5h-7.3zm-8.7 0h7.2v11.5h-7.2zm-8.8 0h7.2v11.5h-7.2zM902.6 316.7v13h88.2v-13zm79.4.8h7.2v11.4H982zm-8.7 0h7.2v11.4h-7.3zm-8.8 0h7.2v11.4h-7.2zm-8.8 0h7.2v11.4h-7.2zm-8.8 0h7.3v11.4H947zm-8.7 0h7.2v11.4h-7.2zm-8.8 0h7.2v11.4h-7.2zm-8.8 0h7.3v11.4h-7.3zm-8.7 0h7.2v11.4h-7.2zm-8.8 0h7.2v11.4h-7.2zM902.6 354.8V368h88.2v-13zm79.4.8h7.2v11.5H982zm-8.7 0h7.2v11.5h-7.3zm-8.8 0h7.2v11.5h-7.2zm-8.8 0h7.2v11.5h-7.2zm-8.8 0h7.3v11.5H947zm-8.7 0h7.2v11.5h-7.2zm-8.8 0h7.2v11.5h-7.2zm-8.8 0h7.3v11.5h-7.3zm-8.7 0h7.2v11.5h-7.2zm-8.8 0h7.2v11.5h-7.2zM902.6 393v13h83l.3-.7H982v-11.5h7.2v2.8l1.2-3.6zm70.7.8h7.2v11.4h-7.3zm-8.8 0h7.2v11.4h-7.2zm-8.8 0h7.2v11.4h-7.2zm-8.8 0h7.3v11.4H947zm-8.7 0h7.2v11.4h-7.2zm-8.8 0h7.2v11.4h-7.2zm-8.8 0h7.3v11.4h-7.3zm-8.7 0h7.2v11.4h-7.2zm-8.8 0h7.2v11.4h-7.2zM902.6 431v13.2h55.2l.9-.8h-3v-11.5h7.2v7.2l1.6-1.7V432h4.8l.7-.8zm44.3 1h7.3v11.4H947zm-8.7 0h7.2v11.4h-7.2zm-8.8 0h7.2v11.4h-7.2zm-8.8 0h7.2v11.4h-7.2zm-8.8 0h7.3v11.4h-7.2zm-8.7 0h7.2v11.4h-7.2zM902.6 469.3v7.9a3.1 3.1 0 00.5-.1v-7h7.2v4.2l1.5-.6V470h7.3v.4l2.5-1.2zM323.6 269zm54.9 237.8h.9zm58.6-119.5l.5-1.5-.5 1.5zM323.6 269zm506.8-120.6v3.4h40.4v-3.4zM378.5 506.8h.9zm58.6-119.5l.5-1.5-.5 1.5zM323.6 269zm54.9 237.8h.9zm58.6-119.5l.5-1.5-.5 1.5z"></path><ellipse cx="903" cy="820.6" rx="34.6" ry="3.8" fill="#6c63ff" opacity=".1"></ellipse><path fill="#d48a9b" d="M668.3 535.3l-17.3-1-1.1-49.6-.3-11.8 18.2-3.4.2 15.2.3 50.6z"></path><path fill="#d48a9b" d="M654.9 526.6L566 581.8l-2 16.8 9.6.5v-12l58.1-32.6-70 86.8v13.5h11.5l-1-14.9 81.1-92.2 10.1 1 85.5 97 1.9 16.3 11.5.5-2-16.8-67.6-84.5 45.1 31.2 1 13.4 9.1.5-1-16.3-85.9-66.3-6.2 3z"></path><path d="M543.3 432.2a158.4 158.4 0 0021-34.1 216 216 0 0013.3-33.8c1-8.6 25.4-25.9 52.3-26.8 17.5-.7 44.8-14.4 61.7-23.8a125.7 125.7 0 0151.8-16c19.8-1.5 38.4 2.4 29 25.3L646.7 475.3S539.5 494 533 463.8a25.3 25.3 0 00-1.5-4.5c-1.3-2.9-1.6-10.4 12-27.1z" fill="#6c63ff"></path><path d="M552.8 435.2a163 163 0 0021-34.4 197.2 197.2 0 0012.3-31.1c1-8.2 24.3-24.8 50-25.7 16.8-.6 43-13.6 59.1-22.7a120.4 120.4 0 0149.6-15.2c19-1.4 36.7 2.3 27.8 24.2l-99.7 146s-123 17.4-129.5-11.4a28.9 28.9 0 00-1.6-4.5c-1.1-2.9-1.3-9.9 11-25.2z" fill="#dda2a6" opacity=".2"></path><path d="M668 484.7h-18.1l-.3-11.8 18.2-3.4z" opacity=".1"></path><g opacity=".1"><path d="M738 589.5l-45.2-31.2 5.2 6.5 40 27.6.9 13.4 9.1.5-.2-2.9-9-.5-.9-13.4zM573.8 584.2v2.9l53.8-30.3 4.2-5.2-58 32.6zM561.8 651.9v2.9h11.5l-.2-2.9h-11.4zM573.8 596.2l-9.3-.4-.4 2.8 9.6.5v-2.9zM750.9 659.1l-2-16.3-85.4-97-10-1-81.2 92.2.2 2.7 81-92 10 1 85.5 97 1.9 16.3 11.5.5-.3-3-11.2-.4z"></path></g><path d="M657.8 390.1s22.4 16.5 12.6 16.7-12.6-16.7-12.6-16.7z" opacity=".1"></path><path d="M563.4 480s37.2-2.8 51.2-29.7c0 0 28.3-56.1 51.3-62.4s65.8-20.1 83.5-41.7 25.3-38.2 25.3-38.2 4.5 17.5-9.9 38-19.7 52.4-29.8 86-13.9 47-32.1 49c-13.8 1.5-86.5.8-121.2 0-11.4-.2-18.3-1-18.3-1z" fill="#6c63ff"></path><path d="M563.4 480s37.2-2.8 51.2-29.7c0 0 28.3-56.1 51.3-62.4s65.8-20.1 83.5-41.7 25.3-38.2 25.3-38.2 4.5 17.5-9.9 38-19.7 52.4-29.8 86-13.9 47-32.1 49c-13.8 1.5-86.5.8-121.2 0-11.4-.2-18.3-1-18.3-1z" fill="#dda2a6" opacity=".2"></path><path d="M572.8 480s35.6-2.7 48.9-28.7c0 0 27-54.4 49-60.4s63-19.6 79.9-40.5 24-37 24-37 4.4 17-9.3 37-18.8 50.7-28.5 83.2-13.3 45.6-30.7 47.4c-13.2 1.4-82.6.7-115.9 0-10.8-.2-17.4-1-17.4-1z" fill="#6c63ff"></path><path d="M544 466s19.4 7.5 30.5 3.5 38.4-16.1 38.4-16.1-46.1 2.9-69 12.7z" opacity=".1"></path><path d="M674 815.4s-56-3-69.5-11-33-8-33-8L349 748l-92.5-22-16.5-2.1 54.5-62.4 1.6-.7 80.4-34.8s36 2 43 25.5a28.3 28.3 0 011 5A29.4 29.4 0 01415 677a43.6 43.6 0 00-7.4 14.2c-.6 2.8-.5 5.3 1 7.2a58.7 58.7 0 009.9 8c19.5 13 69 34.4 155.6 1.5 0 0 37-36.5 65-21s35 128.5 35 128.5z" fill="#e1dee5"></path><path d="M407.5 691.2c-.6 2.8-.5 5.3 1 7.2a58.7 58.7 0 009.9 8L250 718.8l46.1-58.2 80.4-34.8s36 2 43 25.5a28.3 28.3 0 011 5A29.4 29.4 0 01415 677a44.2 44.2 0 00-7.4 14.2z" opacity=".1"></path><path fill="#a36468" d="M243 462l138 3V630L250 719l-31.5-29 6.5-96-6.5-89.5L243 462z"></path><path d="M164.5 435l161-49.7a24.4 24.4 0 019-1l385 28a181.8 181.8 0 0191.6 32.4c25 17.6 49.6 44.5 61 85.4a163 163 0 01-1.6 91.8l-34 110s25.5-239-229-251z" fill="#d9d6df"></path><path d="M250 458.4v265.4s-44.2-6.2-52-14.9c-6.5-7-43.8-27-60-47.5-3.5-4.5-6-9-7-13.5-5.4-24.6-27.5-83-27.5-83l6-57 25-37 48.5-22h37.5z" fill="#b8797d"></path><path d="M180 462s-71.8 45-56 117.4c1.2 5.9 2.3 11.8 3 17.8 2.9 23.4 20.1 90.7 123 121.7v7l-43.7-12.1-29.6-16.4-22.6-20.2-27.6-33.8-12.9-27.5-4.7-36.2-2.7-41.3 6.6-35.5 15.6-23 19-14.8z" fill="#d9d6df"></path><path d="M250 458.4v42.3c-31.3 3.4-128.2 23-111 135l-1 25.7c-3.5-4.5-6-9-7-13.5-5.5-24.7-27.5-83-27.5-83l6-57 25-37 48.5-22h37.5z" opacity=".1"></path><path d="M415 677a43.6 43.6 0 00-7.5 14.2c-4.3-5-5.3-10.7 1-15.3 7.9-5.7 10.5-15.7 11.1-24.5a28.3 28.3 0 011 5A29.4 29.4 0 01415 677z" fill="#fff" opacity=".1"></path><path d="M819 704l-19 64.4-43 42-54 11-84-15V508s14.5-9.5 16-9.5 42 6.5 42 6.5l91.7 65.8 3.8 2.7 41 61z" fill="#b8797d"></path><path fill="#a36468" d="M619 495.4v311l8 1.5V495.4h-8z"></path><path d="M770.5 591.4A259.5 259.5 0 00619 534v-26s14.5-9.5 16-9.5 42 6.5 42 6.5l91.7 65.8z" opacity=".1"></path><path d="M606.3 475.4l-375.8-41-42.3-2.2a86.8 86.8 0 00-70.2 29.4c-22 25.3-38.6 69.9-14.3 146.5 0 0 25.3 99.3 148 120.7L608 809.6c8 1.7 15.7 4 23.4 6.5 32.4 10.6 142 38.1 193.7-55.5 17.7-32 23-69.5 16.1-105.6-12.4-65.8-59.3-177.7-235-179.6zm184.1 281c-48.2 78.5-147.5 55-177.3 45.9-7.4-2.3-14.8-4.3-22.2-5.9L261.6 726C148 707.4 124.7 620.6 124.7 620.6c-19.1-57-10.8-93.8 4.7-117a83.3 83.3 0 0173.7-36.6l39 2 336 45a207 207 0 0020.6 1.7c149.5 5 196 87.3 207.8 144 7 33 1.7 67.8-16 96.6z" fill="#e1dee5"></path><path d="M106 678.5c12.3 8.2 31 4.3 31 4.3s28.2-13.4 36.5-13.4 28.6-8.2 28.6-8.2l-.7-5.6-2-16.7c12.8 10 27 6.5 34 5.8 7.6-.8 47.9-24.7 51.8-26.3 1-.4 2.3-1.8 3.5-3.6a90.8 90.8 0 006.8-12.4c2.5-2.3 4.4-4 4.3-4.4s1-3.3 2.4-6.6c5.8-1 10.7-3.1 12.3-4.4a10.7 10.7 0 004-8.7s39.3-39.6 34-56.1 12.8-16.9 12.8-16.9 27.4-11.8 31.2-18.8c2.4-4.4 22.9-14 38.4-20.6l1.9-.9c6 13.2 36.4 3 42.4-2.5 6.4-5.9 25-8.6 25-8.6s.8-77 6.8-86.8c2.8-4.7 3.5-19.9 3.4-34.5V331c8.4-1.6 28.2-5.4 37.4-6.3 5.9-.6 12-4.2 16.6-7.8l.6.7a11.4 11.4 0 005 .9 7.8 7.8 0 004.5-.9c3.6-2 16.7-5.9 21.4-7.8s-.8-16.1-4.3-18.9-6-6.3-4-7.8-4.8-5.5-8.8-6.3-15.8-6.3-15.8-6.3-4.4-9-11.5-9-16.7-7-16.7-7c-.4-3.2-8-3.6-8-3.6s-28.5-22-33.3-19.2-17.9-4.4-17.9-4.4-16 1.8-19.8-1.1a4.5 4.5 0 00-1-2.7c-.9-2.6-5-6.3-9-9.3a35.4 35.4 0 00.4-5.7v-2.4-.4l.5-5.6a11.4 11.4 0 011.4-5.2c.7-1 1.7-1.8 2.4-2.8a7 7 0 00.5-.7l.1-.3a6.5 6.5 0 00.3-.5v-.2a9.6 9.6 0 00.6-1.7v-.2l.1-.7a.5.5 0 010-.2 16.8 16.8 0 00-.9-6.7c-1.2-3.7-3-7.3-3.2-11.2-.1-1.9.2-3.8-.2-5.7-1-4.3-5.4-7-9.6-8.8-6-2.5-8.9-5.2-13.6-8.8-4-3.1-10.6-1.6-15.6-1.2-11.6.7-23 4.2-33.8 7.7a34 34 0 00-11.8 5.9 13 13 0 00-4.3 7.3 9.5 9.5 0 00-.1 2v.9a1.9 1.9 0 000 .3 5.9 5.9 0 00.3.9c.5 1.4 1.3 2.7 1.8 4.2a8.2 8.2 0 01.3 1l.1 1c.5 3.6-.8 7.4-1.4 11l-.2 1.6a18.6 18.6 0 00.6 6.2l.2.8a3 3 0 000 .4l.3.6.2.4c0 .2.2.4.3.5l.2.5a5.5 5.5 0 00.3.5l.2.4.3.4.4.5.3.4.4.4.4.4.4.4.4.2.6.5.3.2 1 .5c2.3 1 5.2 1.4 6.5 3.4a4.2 4.2 0 01.7 1.6v.7c0 1.2 0 2.3.2 3.5a12.7 12.7 0 00.1 1.8 5.3 5.3 0 00.4 1.4 35.7 35.7 0 0012 20.2l.4 2.1a39.7 39.7 0 01-11.6 6c-9.5 2.8-23 15.7-23 15.7s-6.7 48.3-8.3 54.1-2.8 28.7-2.8 28.7-1.6 9.4-4 14.1c-1.7 3.4-1.3 17.6 3.4 26.3a21.9 21.9 0 01-3 4.8c-9.5 11-38 10.6-47.6 10.6-8.8 0-11.5 5.3-11.9 6.1-17.4 5-74 21.1-80.6 24-8 3.5-12.3 37.8-12.3 37.8s-16.6 56.9-15.8 64.4-5.6 28.2-5.6 28.2 0 23.5-2.7 25a.3.3 0 010 .1c-2.8 1.2-2.5 12.6-2.5 12.6l5.3 1.4c-.9 5.8-4 13.8-6.4 19.5-1.3-1.5-2.5-2.2-3.2-.4-2 5-31.8 40.4-39.3 40.4-3.6 0-9.5 2.9-13.5 6.9-4.2 4.3-6 10 .4 14.3zm136.6-204.6c33.7 3.1 69.8-2.4 69.8-2.4s-2.7 9.8-5.1 13.8-9.2 26.3-9.2 31-10.7 45.1-13.9 47c-1.3 1-2.5 3-3.4 5a47 47 0 00-2.1 6q0 1.6.3 3l-7.2 6.5s-14.2 7.9-19 12.2-27 9.6-27 9.6a138.2 138.2 0 00-16 8.2c-6.9 4.1-13.7 9.4-15.5 14.6.7-8.8 2-19.4 2.9-26l1.2-.1c11.1-.7 9.5-11.3 8.9-14l-.1-.6c7.9-8.6 25.8-73 23.4-80s2-13.4 3-13.4 2.1-7.9.2-12.2 8.8-8.2 8.8-8.2zm272.9-173.2l-2.2.5v-.5h2.2zM400 241.4l-1 1.2-.4.4v-2.2l1.4.6zm-39.8 76.2l.2 2.2-.7 3.7zm182.5-22l-7 1.3 3-1.3a6.7 6.7 0 012.1-.6 12.7 12.7 0 012.6.6 4.8 4.8 0 00-.7 0z" transform="translate(-101.8 -36)" fill="url(#a)"></path><path d="M206.7 543.2s-8 16.5-7.6 17.7-17.1 15.2-17.1 15.2l-19.1-13.6 2-9.4s21.4-19.3 23-21.5 18.8 11.6 18.8 11.6z" fill="#efb7b9"></path><path d="M97.8 599c13.3 13 28.8 9 36.3 8.3s46.9-24.6 50.7-26.1c1-.4 2.2-1.8 3.5-3.6a90 90 0 006.7-12.3c-.3 0-13.3 3.7-16.5 0 0 0-5.5-6.7-6.7-6.7s0-11.8 0-11.8-14 7.9-18.7 12.2-26.5 9.5-26.5 9.5a134 134 0 00-15.6 8c-10.4 6.4-20.8 15.3-13.2 22.6z" fill="#67647e"></path><path d="M97.8 599c13.3 13 28.8 9 36.3 8.3s46.9-24.6 50.7-26.1c1-.4 2.2-1.8 3.5-3.6-4.6-2.7-34.8 16.4-43.2 20s-29.8 1.5-41.9-3.6c-6-2.5.1-10.3 7.7-17.4-10.3 6.3-20.7 15.2-13 22.5z" opacity=".1"></path><path d="M99.4 558.6s-5.6 41.7-4.2 47.1S60.4 587 60.4 587s12.7-26.1 9-32.1 30 3.7 30 3.7z" fill="#efb7b9"></path><path d="M64.7 559.4s22.6 6.6 35 5.8c11-.7 9.3-11.2 8.8-13.8l-.2-.6c7.8-8.6 25.4-72.5 23-79.5s2-13.2 3-13.2 2.1-7.8.2-12 8.5-8.3 8.5-8.3c33.2 3.1 68.6-2.3 68.6-2.3s-2.7 9.7-5 13.6-9 26.1-9 30.8-10.6 44.8-13.7 46.8c-1.3.8-2.4 2.8-3.4 5a46.8 46.8 0 00-2 6c1.1 26 30.8 16 35 12.4a11.5 11.5 0 001.7-1.7 10.9 10.9 0 002.2-6.8s38.6-39.4 33.5-55.8 12.5-16.7 12.5-16.7 26.9-11.7 30.6-18.7c2.4-4.3 22.5-13.8 37.7-20.5l17-7.2-6.3-22.6-5-18-9.3-3.4-30-11.3-53.9-7.6-4.9.7-52.3 6.8S110.7 389 103 392.4 90.8 430 90.8 430s-16.4 56.5-15.6 64-5.4 28-5.4 28 0 23.2-2.7 24.8c-2.8 1.3-2.4 12.6-2.4 12.6z" fill="#444053"></path><path d="M143 437.8c33.1 3 68.6-2.4 68.6-2.4 2.3-7.4 35-27.6 35-27.6-26.8-6.7-103.6 30-103.6 30z" opacity=".1"></path><path d="M178.5 537.5c1.1 26.1 30.8 16 35 12.5a11.5 11.5 0 001.7-1.7c-10.3 3.8-28.7 6.8-34.7-16.7a46.8 46.8 0 00-2 6zM64.7 559.4s22.6 6.6 35 5.8c11-.7 9.3-11.2 8.8-13.8-11.5-.4-31.2-1.5-41.4-4.6-2.8 1.3-2.4 12.6-2.4 12.6z" fill="#444053"></path><path d="M178.5 537.5c1.1 26.1 30.8 16 35 12.5a11.5 11.5 0 001.7-1.7c-10.3 3.8-28.7 6.8-34.7-16.7a46.8 46.8 0 00-2 6zM64.7 559.4s22.6 6.6 35 5.8c11-.7 9.3-11.2 8.8-13.8-11.5-.4-31.2-1.5-41.4-4.6-2.8 1.3-2.4 12.6-2.4 12.6z" opacity=".1"></path><path d="M9 640.8c12 8.2 30.4 4.3 30.4 4.3s27.6-13.3 35.8-13.3 28-8.2 28-8.2l-.6-5.5-3.3-26.4s-30.3-.8-31.5-3.5c0 0-5.5-13.4-7.4-8.5s-31.2 40-38.6 40c-3.5 0-9.4 3-13.2 6.9-4.2 4.4-6 10 .4 14.2z" fill="#67647e"></path><path d="M113.8 410.5s25.3 16 18.3 19.5-18.3-19.5-18.3-19.5zM103.2 441.3s21.9 20.7 13.7 21.2-13.7-21.2-13.7-21.2zM79.9 507s11 21 6.9 24.5-7-24.4-7-24.4zM201.9 528.2c-4 3.9 37-12.9 27.6-13.7s-27.7 13.7-27.7 13.7z" opacity=".1"></path><path d="M283.7 236l1.3-.3a693.9 693.9 0 0049.2-9.5c12-3.2 20.1-6.6 15-9.4a27.6 27.6 0 01-12.9-17.9 43.3 43.3 0 01-1.6-9s-44-15.6-35.4 0c4.2 7.7 1.4 14-2.6 18.3a34.3 34.3 0 01-9.5 7z" fill="#efb7b9"></path><path d="M330.8 223.8s-15.7 11.3-31.8 2-37.1 82.6-37.1 82.6L240 362.2s-14.1 11.7 3.5 16.7 56.6-5 66.5 9.8 28.7 17.1 30.6 17.1 9.3-55.7 9.3-55.7l2-80.7z" opacity=".1"></path><path d="M244.2 375.8c17.6 5 56.7-5 66.6 9.8a38 38 0 0016.8 13.5 44 44 0 0013.8 3.7c.2 0 .6-1 1-2.8 2.8-11.3 8.3-53 8.3-53l2-80.6-18.6-40.2-2.5-5.5a33.4 33.4 0 01-8 4c-6 2-14.9 3.2-23.8-2-4.7-2.8-9.9 3.2-14.8 13-11.8 23.6-22.3 69.6-22.3 69.6L240.8 359a18.5 18.5 0 00-1.5 1.4c-3 3.3-8.9 11.3 5 15.3z" fill="#f3f5f9"></path><path d="M328 378.5a102.2 102.2 0 00-.5 20.5 240.3 240.3 0 003.7 29 11.4 11.4 0 00.5 1.8c9.5-4.2 17-7.2 17-7.2l-6.3-22.7c2.8-11.2 8.3-52.9 8.3-52.9l2-80.7-18.6-40c12.1-3.2 20.2-6.7 15-9.5a28.6 28.6 0 01-12.8-17.9 65 65 0 01-11 12l-.3.1-1.4 13.6-.4 4.2-1 8.7s4.4 102.5 7.5 108.3 1.5 17.2-1.2 30.4l-.4 2.3z" opacity=".1"></path><path d="M330 374.6c-2.7 13.3-.3 35.1 2.8 51.9s36.2 5.8 42.5 0 24.5-8.6 24.5-8.6.8-76.4 6.6-86.1c2.8-4.6 3.5-19.7 3.4-34.3 0-13-.7-25.7-1-30V266s25.3-42.9 24.9-46-7.8-3.5-7.8-3.5-28-21.9-32.7-19.1-17.6-4.3-17.6-4.3-16.3 1.8-19.6-1.3a1.7 1.7 0 01-.6-1.4c.3-5-16.6-15.7-17.2-16 14.4 12.8-8.8 32.7-11.4 34.9l-.3.2-2.7 26.4s4.3 102.5 7.4 108.3 1.6 17.2-1.2 30.4z" fill="#67647e"></path><circle cx="331.6" cy="263.3" r="1.9" fill="#444053"></circle><path d="M327.6 210.8l11.8 11.5 17.4-29a1.7 1.7 0 01-.7-1.4c.4-5-16.6-15.7-17-16 14.2 13-8.9 32.8-11.5 35z" opacity=".1"></path><circle cx="335.4" cy="325.7" r="1.9" opacity=".1"></circle><circle cx="335.4" cy="324.9" r="1.9" fill="#444053"></circle><path d="M326.8 209.3l11.8 11.4 17.4-29a1.7 1.7 0 01-.6-1.4c.4-5-16.6-15.6-17.2-16 14.4 13-8.8 32.8-11.4 35z" fill="#67647e"></path><rect x="416.9" y="297.3" width="27.1" height="57.3" rx="1.7" ry="1.7" transform="rotate(-178.7 379.4 308.6)" fill="#d1d9ec"></rect><rect x="417.1" y="298.6" width="27.1" height="57.3" rx="1.7" ry="1.7" transform="rotate(-178.7 379.5 309.8)" fill="#dfe6f5"></rect><circle cx="329.6" cy="279.4" r="4.3" fill="#fff"></circle><path d="M182.8 371.1c9.7 4.3 73.6-7 83-9.7s23-23.8 16.3-39 2.3-30 2.3-30 14-30 17.2-35.9 9.6-22.8 10.5-25.7a2.3 2.3 0 00-.5-1.8 68.7 68.7 0 00-12.4-10.6c-2.7 1-3-6.9-3-12.7 0-3.2.3-5.8.3-5.8L293 203l-2.6 2.1a40.4 40.4 0 01-12.3 6.7c-9.3 2.8-22.6 15.6-22.6 15.6l4 59.8s-9 56.3-18.4 67.2-37.4 10.5-46.7 10.5-11.7 6.2-11.7 6.2z" opacity=".1"></path><path d="M182 368.8c9.7 4.3 73.6-7 83-9.7s23-23.8 16.3-39 2.4-30 2.4-30 14-30 17.1-35.9 9.6-22.8 10.5-25.7a2.4 2.4 0 00-.5-1.8c-2.6-3.8-12.3-10.6-12.3-10.6-2.8 1-3.1-6.9-3-12.7 0-3.2.2-5.8.2-5.8l-3.4 3.1-2.6 2.1a40.4 40.4 0 01-12.3 6.7c-9.3 2.8-22.6 15.6-22.6 15.6l4 59.8s-9 56.3-18.4 67.2-37.4 10.5-46.8 10.5-11.6 6.2-11.6 6.2z" fill="#67647e"></path><path d="M288 199l1 5.3c2 10.7 7 34 10.7 33.2 2.6-.7 7-5.3 10.3-9.2a67.7 67.7 0 00-12.3-10.7c-2.7 1-3-6.9-3-12.7l-3.1-2.7z" opacity=".1"></path><path d="M288.7 197.6l1 5.2c2.1 10.7 7.1 34 10.8 33.1 2.5-.6 7-5.2 10.3-9.2-2.6-3.8-12.3-10.6-12.3-10.6-2.8 1-3.1-6.9-3-12.7l-3.2-2.7z" fill="#67647e"></path><path d="M263.8 312.3s19.5-3.9 25-12.5 42.5-16 38-7-38 38.3-38 38.3L274.1 352l-19.3-5-8.2-15.8z" fill="#efb7b9"></path><path d="M309.9 334.5s-18.9 7-21.7 16.4 21.7-16.4 21.7-16.4zM321.5 345.4s1.7 9.8-22 9zM423.6 220.7l8.5-.7s9.4 7 16.4 7 11.3 9 11.3 9 11.7 5.4 15.6 6.2 10.5 4.7 8.6 6.2.4 5 3.9 7.8 9 16.8 4.2 18.7-17.5 5.9-21 7.8-7.8 0-7.8 0-20.6-26.9-31.1-21.8-25 5-25 5L396 242.2z" opacity=".1"></path><path d="M244.2 349c1.9 2.7 4.3 4.6 7.3 5a55 55 0 0022.7-2.1s-39.3-12.5-1.5-42.8h-10l-3.5-1.3 1.6-8L263 227l-8.2-2s-6.6 48-8.1 53.8-2.8 28.4-2.8 28.4-1.6 9.4-3.9 14a40.7 40.7 0 004.2 27.8z" fill="#67647e"></path><path d="M245.8 349c1.8 2.7 4.2 4.6 7.3 5a55 55 0 0022.7-2.1s-39.3-12.5-1.5-42.8h-10l-3.4-1.3c-5.7 9.9-14.4 27.4-15 41.2z" opacity=".1"></path><path d="M244.2 349c1.9 2.7 4.3 4.6 7.3 5a55 55 0 0022.7-2.1s-39.3-12.5-1.5-42.8h-10l-3.5-1.3c-5.5 9.9-14.2 27.4-15 41.2z" fill="none"></path><path d="M244.2 349c1.9 2.7 4.3 4.6 7.3 5a55 55 0 0022.7-2.1s-39.3-12.5-1.5-42.8h-10l-3.5-1.3c-5.5 9.9-14.2 27.4-15 41.2z" fill="#67647e"></path><path d="M296.7 208.2a35.5 35.5 0 0040.1-7.6l-.5-1.7a43.3 43.3 0 01-1.6-9s-44-15.6-35.4 0c4.2 7.7 1.3 14-2.6 18.3z" opacity=".1"></path><path d="M275.9 174.4v.3a32 32 0 00.7 6.6 35.5 35.5 0 0068.3 4.6l.6-2a35 35 0 001.3-9.5v-2.5a35.5 35.5 0 00-71 2.5z" fill="#efb7b9"></path><path d="M275.9 174.7a15.3 15.3 0 01.2 3.4 12.7 12.7 0 000 1.9 5.3 5.3 0 00.5 1.3c1.4 3.4 6 5.5 9.2 3.4a9.9 9.9 0 002.7-3.6c3.3-6.1 7.8-13.1 15-13.2 3-.1 6 1.2 9 2s6.4.8 8.6-1.2c1.7-1.6 2.5-4.2 4.7-4.7s4.4 1.5 5.4 3.5 2 4.5 4 5.5c1 .5 2 .6 3 1.1 4.3 2.4 2.3 10.5 6.7 11.8a3.2 3.2 0 00.5.1l.2-2.2 1.2-11.9a35.5 35.5 0 00-70.9 2.5z" opacity=".1"></path><path d="M338.9 121.4c4.1 1.8 8.5 4.5 9.4 8.8.4 1.8.1 3.8.2 5.7.2 3.8 2 7.4 3.2 11s1.6 8-.8 11.2l-2.3 2.8a11.5 11.5 0 00-1.4 5.2l-1.9 19.2c-5-1-2.7-9.5-7.1-12-1-.4-2-.5-3-1-2-1-2.9-3.5-4-5.5s-3-4.1-5.4-3.6-3 3.2-4.7 4.7c-2.3 2-5.8 2-8.7 1.2s-5.8-2-8.9-2c-7.2.1-11.7 7.1-15 13.2a9.9 9.9 0 01-2.8 3.6c-3.4 2.5-9-.6-9.5-4.7-.4-2.3.4-4.8-1-6.8s-4.1-2.3-6.4-3.3c-5.7-2.7-7.4-9.8-6.5-15.7.7-4.3 2.4-8.8 1-12.9-.5-1.4-1.3-2.7-1.8-4.2-1.2-4 .8-8.4 4-11.2s7.5-4.5 11.6-5.8c10.6-3.6 21.8-7 33-7.8 5-.3 11.5-1.8 15.5 1.2 4.6 3.6 7.5 6.3 13.3 8.7z" fill="#585268"></path><circle cx="329.6" cy="232.5" r="1.9" opacity=".1"></circle><circle cx="329.6" cy="231.8" r="1.9" fill="#444053"></circle><circle cx="342.1" cy="354.9" r="1.9" opacity=".1"></circle><circle cx="342.1" cy="354.1" r="1.9" fill="#444053"></circle><circle cx="335.4" cy="387.2" r="1.9" opacity=".1"></circle><circle cx="335.4" cy="386.5" r="1.9" fill="#444053"></circle><path d="M268.5 263.3s-4.3 29.1 0 34.2 0-34.2 0-34.2zM395.9 317.4s8.2 17.6 0 34.5-13.2 23.8-10.5 34.6 10.5-69.1 10.5-69.1zM9 640.8c12 8.2 30.4 4.3 30.4 4.3s27.6-13.3 35.8-13.3 28-8.2 28-8.2l-.6-5.5c-8.1 1.6-26.5 5.3-28.6 7.1-2.7 2.3-36.2 13.6-36.2 13.6S15 636 8.6 626.6c-4.2 4.4-6 10 .4 14.2z" opacity=".1"></path><g opacity=".1"><path d="M348.5 132.8v-1.3V132.8zM268.8 166c2.3 1 5 1.3 6.4 3.3s.6 4.5 1 6.8c.6 4 6 7.1 9.6 4.7a9.9 9.9 0 002.7-3.6c3.3-6.1 7.9-13.1 15-13.2 3-.1 6 1.2 9 2s6.4.8 8.6-1.2c1.7-1.6 2.5-4.2 4.7-4.8s4.4 1.6 5.5 3.6 1.8 4.5 4 5.5c.9.5 2 .6 2.9 1.1 4.4 2.4 2.2 11 7.1 12l2-19.3a11.5 11.5 0 011.3-5.1l2.4-2.9a8.6 8.6 0 001.6-4 10 10 0 01-1.6 7.2c-.8 1-1.7 1.8-2.4 2.8a11.5 11.5 0 00-1.4 5.2l-1.9 19.2c-5-1-2.7-9.5-7.1-12-1-.4-2-.5-3-1-2-1-2.9-3.5-4-5.5s-3-4.1-5.4-3.6-3 3.2-4.7 4.7c-2.3 2-5.8 2-8.7 1.2s-5.8-2-8.9-2c-7.2.1-11.7 7.1-15 13.2a9.9 9.9 0 01-2.8 3.6c-3.4 2.5-9-.6-9.5-4.7-.4-2.3.3-4.8-1-6.8s-4.2-2.3-6.4-3.3c-5.2-2.4-7.1-8.6-6.7-14.2.4 4.6 2.5 9 6.7 11zM261.5 133.2c.5 1.4 1.3 2.7 1.8 4.2a12 12 0 01.4 5 10 10 0 00-.4-2c-.5-1.4-1.3-2.7-1.8-4a8.8 8.8 0 01-.2-4.2 8.2 8.2 0 00.2 1z"></path></g><path d="M481.4 454.1l-80.3-10a3 3 0 01-1.9-5.2l33.7-35a3 3 0 012.6-1l61.4 7a3 3 0 012.5 4.1l-14.8 38.2a3 3 0 01-3.2 2z" fill="#746d83"></path><path d="M481.4 454.1l-80.3-10a3 3 0 01-1.9-5.2l33.7-35a3 3 0 012.6-1l61.4 7a3 3 0 012.5 4.1l-14.8 38.2a3 3 0 01-3.2 2z" opacity=".1"></path><path d="M480.5 453.2l-80.3-10a3 3 0 01-1.9-5.2l33.7-35a3.1 3.1 0 012.6-1l61.4 7a3 3 0 012.5 4l-14.8 38.3a3 3 0 01-3.2 2z" fill="#746d83"></path><path d="M432.6 416.7l24.1 2 34.4-2.3h-.6l-31.8-3.1c-7.3-2.7-2.3-18.5-2.3-18.5l-24.4 1.3h-2c-8.6 20.3 2.6 20.6 2.6 20.6z" fill="#d1d9ec"></path><path d="M432.6 416.7l24.1 2 34.4-2.3h-.6l-34.7 1.2-23.4-2.5c-6.6-1.8-2.8-13.2-.4-19h-2c-8.6 20.3 2.6 20.6 2.6 20.6z" opacity=".1"></path><path d="M390.4 273.2l7.3 105.9 1 13.9a6 6 0 006 5.6h2.3l111.1-.7a3.1 3.1 0 003.1-3.4l-1-14-7.8-93a6.4 6.4 0 00-4.3-5.4l-105.9-15.9c-3.6-1.2-7.2-.8-9.5 1.1a6.7 6.7 0 00-2.3 6z" fill="#4c4c56"></path><path d="M397.7 379l1 14a6 6 0 006 5.6h2.3l111.1-.7a3.1 3.1 0 003.1-3.4l-1-14z" fill="#dfe6f5"></path><ellipse cx="472.2" cy="390.6" rx="1.5" ry="3" fill="#fff"></ellipse><path d="M467.9 430.2s-30.4-11.4-38.6-3.1c0 0-1.3 2.5 4.2 3.1l22.3 1.8s9.1.9 12-1.8z" fill="#d1d9ec"></path><path d="M467 427.2c-6-2.4-23.8-8.7-35.3-1.7 0 0 12.7-1.4 19.7 2.6s16.5 2.1 16.5 2.1l.1-.2a2 2 0 00-1-2.8zM390.4 273.2l8.3 119.8a6 6 0 006 5.6h2.3a21.3 21.3 0 01-3.9-5s-8.2-120.3-8.8-123.3a6.1 6.1 0 00-1.6-3 6.7 6.7 0 00-2.3 6z" fill="#dfe6f5"></path><path d="M390.4 273.2l8.3 119.8a6 6 0 006 5.6h2.3a21.3 21.3 0 01-3.9-5s-8.2-120.3-8.8-123.3a6.1 6.1 0 00-1.6-3 6.7 6.7 0 00-2.3 6z" opacity=".1"></path><path d="M376 306.4c9-2 30-8.1 30-8.1l3.8-.8c0-13-.7-25.7-1-30s-18 5.9-22.3 9S369 279 369 279s-20.6 1-37.8 20.2 35.9 9.3 44.8 7.3z" opacity=".1"></path><path d="M463.6 271.7a5.2 5.2 0 011.2 8.7 38 38 0 01-18.3 9.3c-11 1.1-37.6 6.4-40.3 7a3.2 3.2 0 00-.4.1c-2.2.6-21.3 6.3-29.8 8.1-9 2-62 11.7-44.8-7.4a60.3 60.3 0 0137.4-20.2 4 4 0 01.7 0c2 0 13.3.5 17.2-2.4a36.8 36.8 0 016.5-3.2 123.2 123.2 0 0126.3-7.6l18.4-3.2a5.3 5.3 0 013 .4z" fill="#efb7b9"></path><path d="M425.1 220.7l8.6-.7s9.4 7 16.4 7 11.3 9 11.3 9 11.7 5.4 15.6 6.2 10.5 4.7 8.5 6.2.4 5 4 7.8 9 16.8 4.2 18.7-17.5 5.9-21 7.8-7.8 0-7.8 0-20.7-26.9-31.2-21.8-25 5-25 5l-11.2-23.7z" fill="#67647e"></path><path d="M938.2 710.7a16.9 16.9 0 00-2.2 4.3l-.5 1.2a4.7 4.7 0 00-.7-.3 11 11 0 00-3.6-.2v-1.5c.2-5.3-.4-12.6-5.4-9.5-4.9 3-1.4 8 1.7 11.2l.8.8c-2.9 2-3.4 6.7-3.9 11.6s-4.6 10.3-7.4 13.3l-.8.9a10.2 10.2 0 00-8-2l-.3-1.4c-2.3-8.1-7-22.1-12.8-25.2l.7-1c2.6-3.3 5.4-8.2 1.2-9.4s-4.6 4.2-4.3 8.3v1.5a6.2 6.2 0 00-4.3 2.1l-.6-.7c-3.4-4-9.7-10.4-11.6-5.6-1.7 4.5 3.8 10.3 7.6 13.7l.3.2c-2.6 10.5 8.7 19 14.8 22.8l.8.5a91.7 91.7 0 00-13.6 28.5l23.5 4.2s15.6-13.5 13.6-26.1h.1c15.6-3.2 19.2-19.8 16.7-29.6l.3-.2a17.7 17.7 0 007.2-5.4c4.3-6-4.8-13-9.3-7z" fill="#6c63ff"></path><path d="M938.2 710.7a16.9 16.9 0 00-2.2 4.3l-.5 1.2a4.7 4.7 0 00-.7-.3 11 11 0 00-3.6-.2v-1.5c.2-5.3-.4-12.6-5.4-9.5-4.9 3-1.4 8 1.7 11.2l.8.8c-2.9 2-3.4 6.7-3.9 11.6s-4.6 10.3-7.4 13.3l-.8.9a10.2 10.2 0 00-8-2l-.3-1.4c-2.3-8.1-7-22.1-12.8-25.2l.7-1c2.6-3.3 5.4-8.2 1.2-9.4s-4.6 4.2-4.3 8.3v1.5a6.2 6.2 0 00-4.3 2.1l-.6-.7c-3.4-4-9.7-10.4-11.6-5.6-1.7 4.5 3.8 10.3 7.6 13.7l.3.2c-2.6 10.5 8.7 19 14.8 22.8l.8.5a91.7 91.7 0 00-13.6 28.5l23.5 4.2s15.6-13.5 13.6-26.1h.1c15.6-3.2 19.2-19.8 16.7-29.6l.3-.2a17.7 17.7 0 007.2-5.4c4.3-6-4.8-13-9.3-7z" opacity=".1"></path><path d="M891.4 717.5l-2.8 8s-1.5-1-3.4-2.7c-3.9-3.4-9.4-9.2-7.6-13.7 1.9-4.8 8.1 1.5 11.5 5.6l2.3 2.8zM897.2 713a38.1 38.1 0 01-2.7 3 39 39 0 01-.5-4.1c-.2-4.2.2-9.6 4.4-8.4s1.3 6.1-1.2 9.4zM932.7 714.2c-.1 2.6-.4 4.8-.4 4.8a34.7 34.7 0 01-3.4-3.1c-3.1-3.2-6.5-8.2-1.7-11.2 5-3.1 5.6 4.2 5.5 9.5zM949 717.6a17.7 17.7 0 01-7.3 5.5 19.4 19.4 0 01-2.4.9l-3.2-4.6a32.2 32.2 0 011.3-4.4 16.9 16.9 0 012.3-4.3c4.4-6 13.6 1 9.2 7z" fill="#6c63ff"></path><path d="M889.1 714.7l2.3 2.8-2.8 8s-1.5-1-3.4-2.7a15.7 15.7 0 013-7l1-1.1zM897.2 713a38.1 38.1 0 01-2.7 3 39 39 0 01-.5-4.1 5.5 5.5 0 013.2 1z" opacity=".1"></path><path d="M910.7 744.9l-6.8 3a41.4 41.4 0 01-3.6-2c-7.2-4.5-21.7-15.6-12-28.8s17.7 10.5 21 22c1 3.4 1.4 5.8 1.4 5.8z" fill="#6c63ff"></path><path d="M928.9 715.9a5.7 5.7 0 013.8-1.7c-.1 2.6-.4 4.7-.4 4.7a34.7 34.7 0 01-3.4-3zM941.7 723a19.4 19.4 0 01-2.4 1l-3.2-4.6a32.2 32.2 0 011.3-4.4c2 1.2 3.6 4.3 4.3 8z" opacity=".1"></path><path d="M924.7 752.8l-1.1.2c-23 3.5-7.6-8.8-7.6-8.8l2.5-2.6c2.7-3 6.9-8.3 7.4-13.3.7-7.4 1.5-14.4 10.3-12.3 8.6 2 10.2 32.5-11.5 36.8z" fill="#6c63ff"></path><path fill="#d4dfec" d="M880.5 809.9h43.8v11.5h-43.8z"></path><path fill="#d4dfec" d="M873.5 772.5h57.2v40.2h-57.2z"></path><path opacity=".1" d="M880.5 809.9h43.8v11.5h-43.8z"></path><path opacity=".1" d="M873.5 772.5h57.2v40.2h-57.2z"></path><path fill="#d4dfec" d="M883.4 809.9h43.8v11.5h-43.8z"></path><path d="M909.2 739c1 3.5 1.5 5.9 1.5 5.9l-6.8 3a41.4 41.4 0 01-3.7-2c2.7-3.5 5.8-6 9-6.8zM924.7 752.8l-1.1.2c-23 3.5-7.6-8.8-7.6-8.8l2.5-2.6c4.2 3.5 6 7.3 6.2 11.2z" opacity=".1"></path><path d="M887.5 774.8s12.8-46 30.8-31.8-7.3 36-7.3 36z" fill="#6c63ff"></path><circle cx="893.9" cy="724.4" r="1.4" opacity=".1"></circle><circle cx="893.8" cy="731.1" r="1.4" opacity=".1"></circle><circle cx="935.6" cy="725.7" r="1.4" opacity=".1"></circle><circle cx="902" cy="760.1" r="1.4" opacity=".1"></circle><circle cx="932.6" cy="736.8" r="1.4" opacity=".1"></circle><circle cx="917.7" cy="751.7" r="1.4" opacity=".1"></circle><circle cx="898.9" cy="727.2" r="1.4" opacity=".1"></circle><circle cx="931.6" cy="730" r="1.4" opacity=".1"></circle><circle cx="926.7" cy="741.1" r="1.4" opacity=".1"></circle><circle cx="911.6" cy="759" r="1.4" opacity=".1"></circle><circle cx="908.5" cy="752" r="1.4" opacity=".1"></circle><circle cx="901" cy="736" r="1.4" opacity=".1"></circle><path opacity=".1" d="M883.4 809.9h43.8v4.2h-43.8z"></path><path fill="#d4dfec" d="M876.4 772.5h57.2v40.2h-57.2z"></path><circle cx="913.5" cy="765.5" r="1.4" opacity=".1"></circle><circle cx="904.9" cy="767.3" r="1.4" opacity=".1"></circle></svg>